{"title":"Szegenylegenyek.1966-KG","uid":12150384,"size":939388928,"categoryP":"video","categoryS":"movies","magnet":"?xt=urn:btih:10a565e23ca11f32b216d771be4f52f79186c1b6&amp;dn=Szegenylegenyek.1966-KG&amp;tr=udp%3A%2F%2Ftracker.openbittorrent.com%3A80&amp;tr=udp%3A%2F%2Fopen.demonii.com%3A1337&amp;tr=udp%3A%2F%2Ftracker.coppersurfer.tk%3A6969&amp;tr=udp%3A%2F%2Fexodus.desync.com%3A6969","seeders":0,"leechers":1,"uploader":"app1985","files":3,"time":1437613487,"description":" &lt;a href=&quot;http://www.imdb.com/title/tt0059776/&quot; rel=&quot;nofollow&quot; target=&quot;_NEW&quot;&gt;http://www.imdb.com/title/tt0059776/&lt;/a&gt;\n\nGeneral\nComplete name                  : Szegenylegenyek.1966-KG.avi\nFormat                         : AVI\nFormat/Info                    : Audio Video Interleave\nFile size                      : 896 MiB\nDuration                       : 1h 26mn\nOverall bit rate mode          : Variable\nOverall bit rate               : 1 443 Kbps\nWriting application            : Nandub v1.0rc1\nWriting library                : Nandub build 1841/release\n\nVideo\nID                             : 0\nFormat                         : MPEG-4 Visual\nFormat profile                 : Advanced Simple@L5\nFormat settings, BVOP          : 1\nFormat settings, QPel          : No\nFormat settings, GMC           : No warppoints\nFormat settings, Matrix        : Custom\nCodec ID                       : XVID\nCodec ID/Hint                  : XviD\nDuration                       : 1h 26mn\nBit rate                       : 1 343 Kbps\nWidth                          : 704 pixels\nHeight                         : 288 pixels\nDisplay aspect ratio           : 2.40:1\nFrame rate                     : 25.000 fps\nColor space                    : YUV\nChroma subsampling             : 4:2:0\nBit depth                      : 8 bits\nScan type                      : Progressive\nCompression mode               : Lossy\nBits/(Pixel*Frame)             : 0.265\nStream size                    : 834 MiB (93%)\nWriting library                : XviD 1.2.0.dev47 (UTC 2006-11-01)\n\nAudio\nID                             : 1\nFormat                         : MPEG Audio\nFormat version                 : Version 1\nFormat profile                 : Layer 3\nCodec ID                       : 55\nCodec ID/Hint                  : MP3\nDuration                       : 1h 26mn\nBit rate mode                  : Variable\nBit rate                       : 87.0 Kbps\nNominal bit rate               : 96.0 Kbps\nChannel(s)                     : 1 channel\nSampling rate                  : 48.0 KHz\nCompression mode               : Lossy\nStream size                    : 54.0 MiB (6%)\nAlignment                      : Aligned on interleaves\nInterleave, duration           : 24 ms (0.60 video frame)\nInterleave, preload duration   : 521 ms\nWriting library                : LAME3.97 \nEncoding settings              : -m m -V 4 -q 3 -lowpass 20.5 --abr 96","torrent":{"xt":"urn:btih:10a565e23ca11f32b216d771be4f52f79186c1b6","amp;dn":"Szegenylegenyek.1966-KG","amp;tr":["udp%3A%2F%2Ftracker.openbittorrent.com%3A80","udp%3A%2F%2Fopen.demonii.com%3A1337","udp%3A%2F%2Ftracker.coppersurfer.tk%3A6969","udp%3A%2F%2Fexodus.desync.com%3A6969"],"infoHash":"10a565e23ca11f32b216d771be4f52f79186c1b6","infoHashBuffer":{"type":"Buffer","data":[16,165,101,226,60,161,31,50,178,22,215,113,190,79,82,247,145,134,193,182]},"announce":[],"urlList":[]}}